# xmcd
#
# Track frame offsets:
#	150
#	14475
#	26172
#	36972
#	61122
#	73197
#	83097
#	92322
#	103122
#	114147
#	128922
#	138372
#
# Disc length: 2009
#
# Revision: 2
# Processed by: cddbd v1.5.1PL0 Copyright (c) Steve Scherf et al.
# Submitted via: audiograbber 1.82.02
# Normalized: r1:DSETVAR1
#
DISCID=9807d70c
DTITLE=Various Artist - Jingle Bell Country
DYEAR=1988
DGENRE=Christmas
TTITLE0=Gene Autry - Rudolph, The Red Nosed Reindeer
TTITLE1=Johnny Cash - Little Drummer Boy
TTITLE2=John Schneider - The Christmas Song
TTITLE3=Grandpa Jones - The Christmas Guest
TTITLE4=Merle Haggard - If We Make It Through December
TTITLE5=Sweethearts OF The Rodeo - Jingle Bell Rock
TTITLE6=Tammy Wynette and The O'Kanes - Away In A Manger
TTITLE7=Ray Price - I Heard The Bells On Christmas Day
TTITLE8=George Jones - O Come All Ye Faithful
TTITLE9=Slim Whitman - Angels We Have Heard On High
TTITLE10=Charlie McKoy - Christmas Time's A Comin'
TTITLE11=Roy Orbison - Pretty Paper
EXTD=
EXTT0=
EXTT1=
EXTT2=
EXTT3=
EXTT4=
EXTT5=\n\n\n
EXTT6=
EXTT7=
EXTT8=
EXTT9=
EXTT10=
EXTT11=
PLAYORDER=
